<?xml version="1.0" standalone="no"?><!DOCTYPE svg PUBLIC "-//W3C//DTD SVG 1.1//EN" "http://www.w3.org/Graphics/SVG/1.1/DTD/svg11.dtd"><svg class="icon" width="32px" height="32.00px" viewBox="0 0 1024 1024" version="1.1" xmlns="http://www.w3.org/2000/svg"><path fill="#d81e06" d="M877.9 711h-9.2L623.6 254.3c19.6-24.2 31.1-55.2 31.1-88.6 0-80.5-65.6-146.1-146.1-146.1S362.5 85.2 362.5 165.7c0 34.5 11.5 65.6 31.1 89.7l-227.9 458c-6.9-1.2-12.7-1.2-19.6-1.2C65.6 712.2 0 777.8 0 858.3s65.6 146.1 146.1 146.1c75.9 0 139.2-58.7 145-133.5h440.7c6.9 74.8 69 133.5 146.1 133.5 80.5 0 146.1-65.6 146.1-146.1 0-81.7-65.6-147.3-146.1-147.3zM508.5 254.3c0.1 0 0.1 0 0 0 0.1 0 0.1 0 0 0 0.1 0 0.1 0 0 0zM220.9 732.9l217.5-438.4c12.7 6.9 26.5 12.7 41.4 15v128.9c-63.3 15-110.5 71.3-110.5 139.2 0 28.8 9.2 56.4 24.2 79.4L256.6 762.8c-10.4-11.5-23-21.8-35.7-29.9z m517.8 80.5H285.3l149.6-116.2c21.9 13.8 48.3 23 77.1 23 28.8 0 56.4-9.2 78.2-24.2L741 806.5c0 2.3-1.2 4.6-2.3 6.9z m-107-159.9c15-21.9 23-48.3 23-77.1 0-70.2-50.6-127.7-116.2-140.4V307.2c15-3.5 28.8-8.1 41.4-15L813.4 726c-16.1 9.2-29.9 19.6-41.4 31.1L631.7 653.5z"  /></svg>